<?xml version="1.0" encoding="utf-8"?>
<!-- Generator: Adobe Illustrator 26.0.1, SVG Export Plug-In . SVG Version: 6.00 Build 0)  -->
<svg version="1.1" xmlns="http://www.w3.org/2000/svg" xmlns:xlink="http://www.w3.org/1999/xlink" x="0px" y="0px"
	 viewBox="0 0 750 1663" style="enable-background:new 0 0 750 1663;" xml:space="preserve">
<style type="text/css">
	.st0{fill:#33799B;}
	.st1{fill:#9EC5BC;}
	.st2{fill:#68A3B6;}
	.st3{fill:#C25400;}
	.st4{fill:#FFB285;}
	.st5{fill:#874600;}
	.st6{fill:#C6DBD7;}
	.st7{fill:#274A51;}
	.st8{fill:#19353C;}
	.st9{fill:none;stroke:#19353C;stroke-miterlimit:10;}
	.st10{fill:#958900;}
	.st11{fill:#FF9680;}
	.st12{fill:#FFDDC2;}
	.st13{fill:#EC9282;}
	.st14{fill:#E5B090;}
	.st15{fill:#CC8689;}
	.st16{fill:#FF7769;}
	.st17{fill:#FFC6CF;}
	.st18{fill:#BB4D58;}
	.st19{fill:#216B87;}
	.st20{fill:#83B6D9;}
	.st21{fill:#705431;}
	.st22{fill:#A8533A;}
</style>
<g id="Layer_1">
	<rect class="st0" width="750" height="1663"/>
</g>
<g id="Layer_2">
	<path class="st1" d="M695.28,33.92c-3.94-0.71-75.55,41.19-85.47,56.67c-9.92,15.48,27.28,0.88,27.28,0.88s24.97,24.85,24.17,34.87
		s-9.56,24.69-2.67,25.94c6.89,1.25,8.14-5.64,16.71-19.33c8.58-13.69,64.74-31.97,64.74-31.97
		C747.45,76.91,695.28,33.92,695.28,33.92z M612.11,94.97c-0.15-0.27-0.14-0.69,2.69-4.54c4.54-6.18,6.85-9.28,8.95-9.69
		c4.16-0.8,9.77,2.96,9.65,6.07C633.19,92.53,613.57,97.62,612.11,94.97z M660.1,149.5c1.89-7.4,2.14-8.35,2.48-9.46
		c0.77-2.56,2.05-6.26,4.22-10.67c0,0,4.74,1.88,5.19,5.01S660.1,149.5,660.1,149.5z"/>
	<path class="st2" d="M676.66,296.88c-0.54-0.11-0.77,0.12-3.05,0.84c-2.98,0.94-3.54,0.85-3.88,1.39
		c-0.94,1.52,1.87,4.81,2.51,5.54c-6.21,3.76-10.21,9.44-9.78,14.85c0.08,1.06,0.24,3.08,1.5,5.14c2.15,3.5,5.22,3.37,7.23,7.2
		c0.31,0.6,1.06,2.16,1.15,4.19c0.18,3.92-2.22,6.92-2.79,7.74c-4.24,6.06,2.55,20.2,7,33.82c7.52,22.96,4.88,33.62,12.28,36.31
		c3.68,1.33,7.93,0,13.31-1.69c5.42-1.7,10.62-3.34,13.48-7.28c4.23-5.85-0.01-12.22-7.48-41.26c-0.28-1.11-1.96-7.65-4.75-16.08
		c-1.45-4.38-2.17-6.57-2.79-7.76c-4.01-7.73-9.69-10.44-8.73-14.31c0.15-0.62,0.27-1,0.48-1.34c0.56-0.92,1.34-1.38,1.56-1.52
		c1.69-1.1,2.09-5.65,1.09-9.15c-0.97-3.41-3.12-5.41-4.45-6.65c-1.31-1.22-3.18-2.91-6.14-3.56c-1.95-0.43-3.63-0.23-4.68-0.02
		C679.5,301.62,678.74,297.31,676.66,296.88z"/>
	<g>
		<path class="st3" d="M550.06,1291.26c-0.77,1.39-0.48,2.93,3.08,11.92c2.46,6.22,3.1,7.46,2.7,9.5c-0.63,3.21-4.03,3.35-5,6.83
			c-0.69,2.46,0.21,4.65,0.81,6.21c2.33,5.97,3.38,12.41,5.92,18.3c9.22,21.41,9.2,22.59,11.69,23.61
			c6.52,2.66,16.24-1.03,19.32-7.32c0.91-1.86,1.49-4.46-6.34-25.05c0,0-1.16-2.76-8.01-20.12c-0.44-1.12-0.65-1.62-1.07-2.64
			c0-0.01,0-0.01-0.01-0.02c-0.34-0.78-1.82-0.76-2.61-0.84c-2.94-0.29-5.4-2.89-5.4-2.89c-1.58-1.4-2.31-3.65-3.73-8.1
			c-2.55-8.03-2.14-10.67-4.29-11.73C554.92,1287.83,551.29,1289.04,550.06,1291.26z"/>
		<path class="st4" d="M582.85,1346.23l-18.88,6.85c-1.65,0.6-3.47-0.25-4.06-1.9l-4.34-11.95c-0.6-1.65,0.25-3.47,1.9-4.06
			l18.88-6.85c1.65-0.6,3.47,0.25,4.06,1.9l4.34,11.95C585.35,1343.82,584.5,1345.64,582.85,1346.23z"/>
		
			<ellipse transform="matrix(0.9152 -0.4029 0.4029 0.9152 -486.0095 339.7851)" class="st4" cx="564.55" cy="1324.97" rx="8.23" ry="3.9"/>
		<path class="st5" d="M556.92,1293.83l-3.92,1.42c-1.51,0.13-2.84-0.5-3.33-1.56c-0.34-0.75-0.17-1.51-0.12-1.74
			c0.29-1.29,1.31-1.95,1.54-2.1c0.4-0.29,0.98-0.63,1.72-0.89c0.98-0.34,1.85-0.39,2.42-0.37c0.29-0.02,1.08-0.05,1.91,0.43
			c0.85,0.49,1.22,1.2,1.34,1.46l0,0C558.96,1291.84,558.26,1293.34,556.92,1293.83z"/>
	</g>
	<g>
		<path class="st1" d="M186.78,1347.79c-15.12-9.82-32.93-20.42-53.38-30.88c-43.53-22.27-74.32-37.56-93.62-25.12
			c-6.75,4.35-12.91,12.62-11,18c3.33,9.36,27.94,1.13,62,9c29.64,6.85,57.97,18.46,67,32c4,6,33,42,50,28
			S186.78,1347.79,186.78,1347.79z M205.5,1375.57c-10.57,9.37-43.45-22.25-41.1-26.93c0,0,4.7-2.34,8.22-2.34
			C176.14,1346.29,216.07,1366.2,205.5,1375.57z"/>
		<path class="st6" d="M224.78,1353.79c-0.78-8.84-16.3-7.9-30-19c-14.54-11.78-8.29-22.12-22-34c-3.9-3.38-5.85-3.79-40-13
			c-46.46-12.53-48-13-48-13c-2.75-1.36-6.72-3.11-11.69-4.56c-9.08-2.66-16.98-4.97-24.81-1.94c-7.97,3.09-16.35,11.9-15,20
			c1.24,7.45,10.21,11.4,19.5,15.5c9.3,4.1,17.08,5.28,18.5,5.5c25.8,3.96,51.81,12.53,62.5,16.5c15.45,5.74,27.29,10.14,41,20
			c2.62,1.88,22.51,16.33,37,18c5.66,0.65,8.38-0.89,9.77-2.12C223.83,1359.66,225,1356.33,224.78,1353.79z M219.86,1356.82
			c-1.29,1.99-3.96,2.25-6.58,2.47c-4.66,0.38-8.28-0.76-9-1c-6.64-2.18-18.98-8.4-18-14c0.46-2.63,3.73-4.4,6-5
			c4.83-1.28,6.41,2.39,18,7c5.4,2.15,8.93,2.89,10,6C220.32,1352.42,221.13,1354.87,219.86,1356.82z"/>
	</g>
	<g>
		<g>
			<path class="st7" d="M162.22,187.33c-67.93,0-123,55.07-123,123s55.07,123,123,123s123-55.07,123-123
				S230.15,187.33,162.22,187.33z M165.22,384.33c-21.83,1.39-44.87-32.88-45-33l0,0c-2.76-4.47-12.71-21.8-8.22-43.51
				c0.7-3.41,7.48-33.79,33.22-40.49c19.45-5.06,35.95,6.98,40.3,10.47c22.15,17.77,19.95,46.85,19.7,49.53
				c-0.52,7.05-2.51,20.31-11.33,33.6C188.68,368.76,178.92,383.46,165.22,384.33z"/>
			<path class="st7" d="M140.5,201.89c-67.93,0-123,55.07-123,123s55.07,123,123,123s123-55.07,123-123S208.43,201.89,140.5,201.89z
				 M151.5,388.89c-35,12-53-23-53-23c-2.76-4.47-12.71-21.8-8.22-43.51c0.7-3.41,7.48-33.79,33.22-40.49
				c19.45-5.06,35.95,6.98,40.3,10.47c22.15,17.77,19.95,46.85,19.7,49.53C183.5,341.89,186.5,376.89,151.5,388.89z"/>
			<g>
				<path class="st8" d="M113.22,197.33c4.48-1.74,9.32-3.43,14.5-5c3.8-1.15,7.47-2.14,11-3c0.75,2.67,1.51,5.33,2.26,8H113.22z"/>
				<path class="st8" d="M139.22,193.06c0,0,13.5-3.5,18.5-2.5s4,2,19-1c0,0,7.2-0.5,17.6,1.75c0,0-11.6,7.25,1.4,8.25
					c2.18-0.23,4.48-0.4,6.88-0.5c4.74-0.19,9.14-0.06,13.12,0.27c2.29,1.25,4.62,2.58,7,4c2.8,1.67,5.46,3.34,8,5
					c-6.94-0.12-10.57,0.52-10.9,1.93c-0.19,0.83,0.77,1.93,2.9,3.3c8.68-2.44,13.71-0.49,16,0.77c1.13,0.62,2.23,1.41,7,6
					c3.83,3.69,6.9,6.81,9,9c-7,0.79-10.57,1.89-10.69,3.29c-0.05,0.59,0.51,1.24,1.69,1.94c1.9-0.17,4.56-0.18,7.62,0.5
					c4.38,0.98,7.56,2.94,9.37,4.27c-1.51-0.23-3.99-0.4-6.87,0.36c-4.3,1.13-6.99,3.67-8.12,4.88c0,0,12-2,19,1
					c-0.1,0.36-0.73,2.82,0.85,5.14c1.47,2.16,3.76,2.57,4.15,2.63c0.3,0.98,0.63,1.98,1,3c0.93,2.57,1.95,4.9,3,7
					c0.75,1.73,1.57,4.1,2,7c0.5,3.35,0.3,6.21,0,8.23l-30,57l-1-11l8-12c0,0,17-34,6-32c-11,2-18,15-18,15s-3-14,8-21
					c11-7-6-16-6-16s-9,3-11,9c0,0-6-9,6-15c0,0-1-15,3-18c0,0-15-15-23,11c0,0-7,1-7-12c0,0,1-17,0-18s-3-9-10-3s-4,11-4,11
					s-12-4-15-15c0,0-2.36-8.46-5.68-8.23c-3.32,0.23-7.32,0.23-6.32,6.23c0,0-10,2-15-8s-15.63-1.87-15.63-1.87L139.22,193.06z"/>
			</g>
			<path class="st8" d="M141.22,281.33c-4.27-0.76-17.95-2.65-31.62,5.2c-15.25,8.76-20.04,23.64-21.38,27.8
				c-9.34,29.02,8.18,64.74,32,74c7.61,2.96,15.32,3.01,17,3c15.58-0.08,26.77-7.75,31-11c-5.15-1.99-21.05-8.92-31.5-26.5
				c-10.01-16.85-8.85-33.14-8.41-38.4C129.78,298.24,137.56,286.28,141.22,281.33z"/>
		</g>
		<ellipse class="st9" cx="135.22" cy="335.33" rx="59.5" ry="63.5"/>
		<ellipse class="st9" cx="135.15" cy="335.83" rx="67.46" ry="72"/>
	</g>
	<g>
		<path class="st10" d="M607.39,1388.88c0,0,35.5,32.5,33.5,58.5c0,0,7-1,14,3c0,0-4,8-11,10l1,13c0,0,8.51-1,12.25,0
			c0,0-1.25,11-9.25,15l5,11c0,0,35,125,79,141c-12.43-44.45-22.72-80.06-30.19-105.56c-17.95-61.31-14.01-45.17-14.81-48.44
			c-6.73-27.3-7.53-41.47-19.93-57.5c-6.61-8.55-13.69-13.97-19.85-18.69C632.05,1398.66,617.48,1392.37,607.39,1388.88z"/>
		<path class="st10" d="M627.39,1307.88c43.64,41.97,58.65,78.05,64,104c13.92,67.56,14.5,72.5,14.5,72.5
			c1.33,11.24,2.65,26.3,11.5,43.5c4.25,8.25,8.9,14.41,16.88,24.88c10.43,13.69,19.86,24.35,26.62,31.62c0,0-42-165-53-190
			C707.89,1394.38,681.89,1320.38,627.39,1307.88z"/>
	</g>
	<g>
		<polygon class="st11" points="647.64,1036.65 681.91,1061.31 663.61,1104.15 635.77,1079.96 		"/>
		<polygon class="st12" points="681.91,1061.31 708.12,1091.77 710.52,1060.76 		"/>
		<polygon class="st13" points="647.64,1036.65 638,1042.93 645.82,1043.28 		"/>
		<polygon class="st14" points="678.31,1037.32 647.64,1036.65 681.91,1061.31 710.52,1060.76 		"/>
		<polygon class="st15" points="710.52,1060.76 715.91,1075.17 709.73,1070.96 		"/>
		<polygon class="st16" points="663.61,1104.15 683.73,1099.55 697.79,1079.76 681.91,1061.31 		"/>
	</g>
	<g>
		<path class="st17" d="M739.5,662.5c0,0,1,23-10,30c0,0-55.93-6-60.46-15c-4.82-9.56-3.71-19.55-3.54-20.2
			c2.2-8.16,8.63-14.68,16-16.8c5.85-1.69,10.89-0.21,23.75,5.38C714.03,649.69,725.79,655.14,739.5,662.5z"/>
		<g>
			<ellipse class="st18" cx="654.5" cy="654" rx="2.5" ry="5"/>
			<path class="st18" d="M654.5,649c3.04,0.26,6.57,0.58,10.5,1c3.28,0.35,5.22,0.59,6,2c0.21,0.39,0.52,1.17-0.38,4.38
				c-0.45,1.63-1.23,3.94-2.62,6.62c-4.5-1.33-9-2.67-13.5-4"/>
		</g>
	</g>
	<path class="st2" d="M72.18,685.44c0.55,0.03,0.75-0.23,2.89-1.29c2.8-1.38,3.37-1.38,3.62-1.97c0.7-1.64-2.57-4.47-3.32-5.1
		c5.57-4.66,8.65-10.88,7.41-16.16c-0.24-1.04-0.71-3.01-2.27-4.85c-2.66-3.14-5.67-2.54-8.24-6.01c-0.4-0.54-1.38-1.98-1.78-3.97
		c-0.77-3.85,1.14-7.18,1.58-8.07c3.27-6.64-5.59-19.58-12.06-32.36c-10.92-21.55-9.93-32.49-17.65-34.02
		c-3.84-0.76-7.84,1.21-12.9,3.69c-5.09,2.51-9.99,4.92-12.21,9.25c-3.29,6.42,1.87,12.08,13.66,39.65
		c0.45,1.05,3.1,7.26,7.14,15.17c2.1,4.11,3.14,6.16,3.94,7.25c5.14,7.03,11.16,8.85,10.81,12.82c-0.06,0.64-0.12,1.03-0.27,1.4
		c-0.42,1-1.11,1.57-1.31,1.74c-1.51,1.35-1.2,5.9,0.31,9.21c1.47,3.22,3.91,4.87,5.41,5.89c1.48,1,3.58,2.39,6.61,2.58
		c1.99,0.12,3.62-0.32,4.63-0.69C68.66,681.19,70.05,685.33,72.18,685.44z"/>
	<g>
		<path class="st10" d="M193.49,1472.33c0,0-65.44,40.34-65.44,56.47c0,16.14-5.38,132.67-96.81,130.88c0,0,59.16-37.65,46.61-78.88
			S106.54,1494.74,193.49,1472.33z"/>
		<path class="st10" d="M96.68,1406c0,0,14.34,68.13-16.14,89.64s-26.89,75.3-26.89,78.88c0,3.59-7.24,64.58-60.99,85.18
			c0,0,40.37-32.35,38.58-58.32s1.79-86.92,43.03-126.36C74.27,1475.02,97.58,1446.34,96.68,1406z"/>
	</g>
	<path class="st19" d="M449.5,466.2c0,0,186-60.52,298.5-25.76v25.76C748,466.2,652.5,431.2,449.5,466.2z"/>
	<path class="st19" d="M396.5,485.2c0,0,87-23,154-7C550.5,478.2,488.5,470.2,396.5,485.2z"/>
	<path class="st19" d="M406.45,179.8c0,0-255.14-83.02-409.45-35.34v35.34C-3,179.8,128,131.79,406.45,179.8z"/>
	<path class="st19" d="M487,245.79c0,0-102.7-27.15-181.79-8.26C305.21,237.53,378.4,228.09,487,245.79z"/>
	<g>
		<circle class="st20" cx="118.71" cy="628.29" r="12"/>
		<circle class="st20" cx="116.21" cy="603.79" r="6.5"/>
		<circle class="st20" cx="104.71" cy="568.29" r="5"/>
		<circle class="st20" cx="126.71" cy="528.29" r="4"/>
		<circle class="st20" cx="128.21" cy="607.79" r="2"/>
	</g>
	<g>
		<circle class="st20" cx="505.87" cy="284.42" r="12"/>
		<circle class="st20" cx="503.37" cy="259.92" r="6.5"/>
		<circle class="st20" cx="491.87" cy="224.42" r="5"/>
		<circle class="st20" cx="513.87" cy="184.42" r="4"/>
		<circle class="st20" cx="515.37" cy="263.92" r="2"/>
	</g>
	<g>
		<ellipse class="st20" cx="608.76" cy="570.24" rx="5.58" ry="6.76"/>
		<ellipse class="st20" cx="615.38" cy="545.33" rx="3.83" ry="4.64"/>
		<ellipse class="st20" cx="620.26" cy="563.91" rx="1.74" ry="2.11"/>
		<ellipse class="st20" cx="600.39" cy="540.69" rx="1.39" ry="1.69"/>
		<ellipse class="st20" cx="603.88" cy="555.04" rx="2.09" ry="2.53"/>
	</g>
	<g>
		<circle class="st20" cx="561.71" cy="1117.61" r="12"/>
		<circle class="st20" cx="549.5" cy="1076.5" r="6.5"/>
		<circle class="st20" cx="572" cy="1048" r="5"/>
		<circle class="st20" cx="541" cy="1022" r="4"/>
		<circle class="st20" cx="571.21" cy="1097.11" r="2"/>
		<circle class="st20" cx="550" cy="1053" r="2"/>
	</g>
	<g>
		<path class="st21" d="M544.46,1547.6c-1.41,0.52,6.32,18.93,11.15,45.68c5.44,30.14,4.52,56.03,2.56,74.37l16.17-7.79
			c0-13.07-1.09-31.93-6.37-53.86C560.16,1573.6,546.18,1546.96,544.46,1547.6z"/>
		<path class="st22" d="M566.24,1601.32c0,0,37.55,37.15,42.53,53.3l-16.07,4.94C592.69,1659.56,577.1,1617.61,566.24,1601.32z"/>
		<path class="st22" d="M623.49,1398.51c0,0-5.3,83.84,24.78,126.91c30.08,43.07,53.11,114.52,52.98,123.12
			c-0.13,8.6,32.21-45.4-22.44-111.58C624.15,1470.78,623.49,1398.51,623.49,1398.51z"/>
		<path class="st21" d="M614.52,1424.19c0,0-16.68,42.19-1.52,103.2c15.16,61.01,19.1,104.65,4.38,130.24l22.33,2.05
			c0,0,22.03-49.92-2.9-111.47S614.52,1424.19,614.52,1424.19z"/>
		<path class="st21" d="M685.12,1420.07c0,0,9.34,66.66-12.99,103.03c0,0-7.1,14.81,5.06,45.95c12.16,31.15,13.11,83.35-5.98,93.96
			l30.03-14.47c-0.74-21.52-3.98-38.46-6.79-49.92c-7.65-31.22-16.48-39.65-15.65-61.66c0.71-18.85,7.57-22.78,12.18-43.04
			C694.74,1477.37,696.31,1452.94,685.12,1420.07z"/>
		<path class="st21" d="M733.57,1517.7c0,0-30.97,39.11-23.18,55.28c7.79,16.17-2.21,72.22-9.14,75.56c0,0,36.84-33.94,24.96-71.35
			C714.32,1539.78,733.57,1517.7,733.57,1517.7z"/>
		<path class="st22" d="M723.83,1361.58c6.38,23.01,9.88,42.67,11.91,57.24c4.62,33,4.57,60,4.49,74.33
			c-0.15,27.06-2.04,29.63-1.14,47.87c1.27,25.75,6.33,46.5,10.44,60.08C749.54,1601.09,761.95,1381.64,723.83,1361.58z"/>
	</g>
	<path class="st19" d="M334.27,982.05c0,0,259.05-71.11,415.73-30.27v30.27C750,982.05,617,940.92,334.27,982.05z"/>
	<path class="st19" d="M229,874.37c0,0,102.22-27.02,180.94-8.22C409.94,866.15,337.1,856.75,229,874.37z"/>
	<g>
		<circle class="st20" cx="233" cy="786" r="8"/>
		<circle class="st20" cx="242.5" cy="756.5" r="5.5"/>
		<circle class="st20" cx="249.5" cy="778.5" r="2.5"/>
		<circle class="st20" cx="221" cy="751" r="2"/>
		<circle class="st20" cx="226" cy="768" r="3"/>
	</g>
	<path class="st6" d="M232.79,110.71c2.71-0.85,33.92-50.91,35.04-63.93s-17.46,8.47-17.46,8.47s-23.93-7.38-26.74-13.95
		c-2.81-6.57-2.15-18.7-6.9-17.21s-3.25,6.24-4.12,17.69c-0.87,11.45-30.16,41.53-30.16,41.53
		C185.74,100.91,232.79,110.71,232.79,110.71z M264.93,44.78c0.18,0.12,0.32,0.38-0.19,3.75c-0.81,5.39-1.24,8.11-2.43,9.06
		c-2.35,1.88-7.12,1.37-8.08-0.63C252.47,53.29,263.14,43.59,264.93,44.78z M216.69,26.34c1.26,5.28,1.41,5.96,1.57,6.77
		c0.36,1.87,0.78,4.62,0.87,8.11c0,0-3.6,0.39-4.92-1.43C212.9,37.97,216.69,26.34,216.69,26.34z"/>
</g>
</svg>
